<?xml version="1.0" encoding="UTF-8" standalone="no"?>
<!-- Generator: Adobe Illustrator 18.0.0, SVG Export Plug-In . SVG Version: 6.00 Build 0)  -->

<svg
   xmlns:dc="http://purl.org/dc/elements/1.1/"
   xmlns:cc="http://creativecommons.org/ns#"
   xmlns:rdf="http://www.w3.org/1999/02/22-rdf-syntax-ns#"
   xmlns:svg="http://www.w3.org/2000/svg"
   xmlns="http://www.w3.org/2000/svg"
   xmlns:sodipodi="http://sodipodi.sourceforge.net/DTD/sodipodi-0.dtd"
   xmlns:inkscape="http://www.inkscape.org/namespaces/inkscape"
   version="1.1"
   id="abc"
   x="0px"
   y="0px"
   width="255px"
   height="255px"
   viewBox="0 0 255 255"
   enable-background="new 0 0 255 255"
   xml:space="preserve"
   sodipodi:docname="C.svg"
   inkscape:version="0.92.3 (2405546, 2018-03-11)"><metadata
   id="metadata19"><rdf:RDF><cc:Work
       rdf:about=""><dc:format>image/svg+xml</dc:format><dc:type
         rdf:resource="http://purl.org/dc/dcmitype/StillImage" /><dc:title></dc:title></cc:Work></rdf:RDF></metadata><defs
   id="defs17" /><sodipodi:namedview
   pagecolor="#ffffff"
   bordercolor="#666666"
   borderopacity="1"
   objecttolerance="10"
   gridtolerance="10"
   guidetolerance="10"
   inkscape:pageopacity="0"
   inkscape:pageshadow="2"
   inkscape:window-width="1600"
   inkscape:window-height="837"
   id="namedview15"
   showgrid="false"
   inkscape:zoom="1.8509804"
   inkscape:cx="111.59713"
   inkscape:cy="168.09412"
   inkscape:window-x="-8"
   inkscape:window-y="-8"
   inkscape:window-maximized="1"
   inkscape:current-layer="abc" />
<path
   fill="#00457C"
   d="M23.4,107.3h4.3c1.5,0,2.6-1.2,2.6-2.6v-0.2c0-1.5-1.2-2.6-2.6-2.6h-4.3c-1.5,0-2.6,1.2-2.6,2.6v0.2  C20.7,106.1,21.9,107.3,23.4,107.3z"
   id="path2" />
<path
   fill="#00457C"
   d="M50.8,107.3h36.3c0-1.9,0.1-3.7,0.3-5.5H50.8c-1.5,0-2.6,1.2-2.6,2.6v0.2C48.2,106.1,49.4,107.3,50.8,107.3z  "
   id="path4" />
<path
   fill="#00457C"
   d="M58.4,92.2h6.4c1.5,0,2.6-1.2,2.6-2.6v-0.2c0-1.5-1.2-2.6-2.6-2.6h-6.4c-1.5,0-2.6,1.2-2.6,2.6v0.2  C55.7,91,56.9,92.2,58.4,92.2z"
   id="path6" />
<path
   fill="#00457C"
   d="M79.1,121.7c1.5,0,2.6-1.2,2.6-2.6v-0.2c0-1.5-1.2-2.6-2.6-2.6H70c-1.5,0-2.6,1.2-2.6,2.6v0.2  c0,1.5,1.2,2.6,2.6,2.6H79.1z"
   id="path8" />
<path
   fill="#00457C"
   d="M128.4,197.1c-12.8,0-23.4-3.5-31.5-10.4c-8.2-7-12.3-18-12.3-32.7v-45.6c0-14.7,4.1-25.7,12.3-32.7  c8.1-6.9,18.6-10.4,31.5-10.4c13.1,0,24.1,3.2,32.5,9.6c8.7,6.5,13.1,15.7,13.1,27.1c0,5.8-1.3,9.7-4,12c-2.6,2.2-6.5,3.3-12,3.3  c-12.6,0-15.6-5.7-15.9-10.4c-0.3-9.1-4.3-13.1-12.8-13.1c-8.9,0-13,4.7-13,14.7V154c0,10,4.2,14.7,13.2,14.7c2.8,0,5.1-0.4,6.9-1.3  c1.6-0.8,2.7-1.9,3.4-3.5c0.8-2,1.4-3.6,1.7-4.8c0.3-1.3,0.5-3.1,0.7-5.4c0.4-4.7,3.5-10.3,15.7-10.3c5.6,0,9.6,1.1,12.1,3.3  c2.7,2.3,4,6.2,4,12c0,11.9-4.4,21.4-13.1,28.3C152.5,193.7,141.5,197.1,128.4,197.1z M128.4,70.3c-11.6,0-21.1,3.1-28.2,9.2  c-7,6-10.6,15.7-10.6,28.9V154c0,13.2,3.6,22.9,10.6,28.9c7.1,6.1,16.6,9.2,28.2,9.2c12,0,21.9-3.1,29.5-9.1  c7.5-6,11.2-13.9,11.2-24.4c0-4.1-0.8-6.9-2.2-8.2c-1.1-0.9-3.5-2.1-8.9-2.1c-10.3,0-10.6,4.2-10.8,5.8c-0.2,2.6-0.5,4.5-0.8,6  c-0.3,1.6-1,3.4-2,5.7c-1.2,2.7-3.1,4.7-5.8,6c-2.5,1.2-5.5,1.8-9.1,1.8c-8.3,0-18.2-3.4-18.2-19.7v-45.6c0-16.3,9.8-19.7,18-19.7  c11.3,0,17.4,6.2,17.8,17.9c0.1,1.5,0.4,5.7,10.9,5.7c4.1,0,7.1-0.7,8.7-2.1c1.5-1.3,2.2-4.1,2.2-8.2c0-9.9-3.6-17.5-11.1-23.1  C150.3,73.2,140.4,70.3,128.4,70.3z"
   id="path10" />
<path
   fill="#00457C"
   d="M14.3,133.2L14.3,133.2c0-1.5-1.2-2.6-2.6-2.6s-2.6,1.2-2.6,2.6v0c0,1.5,1.2,2.6,2.6,2.6  S14.3,134.7,14.3,133.2z"
   id="path12" />
<path
   style="fill:#6c5353;stroke-width:0.54025424"
   d="m 120.01686,196.30378 c -5.40935,-0.78895 -11.1298,-2.59416 -15.68259,-4.94896 -5.779506,-2.98929 -12.257527,-9.37816 -14.745246,-14.54231 -4.317528,-8.96259 -4.975018,-15.1574 -4.992345,-47.03746 l -0.01226,-22.55561 H 67.380018 c -15.981227,0 -17.267971,-0.0702 -18.098517,-0.98799 -1.225405,-1.35405 -1.120755,-2.57378 0.306604,-3.57354 1.025392,-0.71821 3.699451,-0.84101 18.313185,-0.84101 h 17.112466 l 0.616416,-3.646721 c 2.784854,-16.47518 12.068216,-26.481703 28.820248,-31.065301 3.90071,-1.067291 5.65442,-1.209076 14.43485,-1.167038 9.01608,0.04317 10.52091,0.18824 15.36891,1.481653 12.75353,3.402559 22.188,10.50848 26.52259,19.976489 2.69036,5.876521 3.65369,14.308198 2.33896,20.472178 -1.24818,5.85202 -6.5895,9.07585 -15.03705,9.07585 -10.3168,0 -15.04228,-3.42182 -15.90928,-11.52026 -0.8625,-8.056358 -4.73737,-11.674707 -12.5282,-11.698803 -6.57724,-0.02034 -9.82765,1.714107 -12.03554,6.422283 l -1.41637,3.0203 v 28.09322 28.09322 l 1.52579,3.10718 c 1.18359,2.41031 2.09233,3.44023 4.05191,4.59216 2.27664,1.33833 3.03299,1.48498 7.65853,1.48498 6.70984,0 8.60798,-0.87531 10.56285,-4.87093 0.77198,-1.57785 1.64942,-4.53098 1.94987,-6.5625 0.88585,-5.98975 1.47765,-7.65334 3.41,-9.58568 2.55705,-2.55706 6.40603,-3.71024 12.39853,-3.71469 8.16812,-0.006 12.02773,1.70507 14.35884,6.36594 1.21653,2.43235 1.35025,3.34421 1.34677,9.18354 -0.003,5.24401 -0.24302,7.25745 -1.25522,10.53496 -3.56875,11.55573 -12.97024,20.30562 -26.29388,24.47154 -7.35682,2.30026 -17.97416,3.09731 -25.88642,1.94331 z m 19.94362,-5.1496 c 11.88074,-2.24485 21.58384,-8.82841 25.88086,-17.56019 4.63056,-9.40954 4.71533,-21.65835 0.16655,-24.06575 -2.62359,-1.38851 -11.57652,-1.66147 -14.74953,-0.44969 -3.15346,1.20432 -3.99356,2.59127 -4.61847,7.62482 -1.42758,11.49871 -6.48776,16.42708 -16.86645,16.42708 -6.46487,0 -9.61313,-1.09093 -13.04124,-4.51904 -4.97595,-4.97594 -4.86494,-4.11754 -4.86494,-37.62079 0,-27.46998 0.053,-29.04663 1.06918,-31.787248 1.44468,-3.896382 4.00906,-6.73963 7.72386,-8.563824 2.76393,-1.357255 3.66664,-1.518627 8.4951,-1.518627 5.86166,0 8.57906,0.756142 11.94569,3.323992 2.52735,1.927711 4.96681,7.136866 5.55458,11.861107 0.26274,2.11187 0.74518,4.33951 1.07207,4.95031 0.95417,1.7829 5.06109,3.03195 10.00599,3.04317 5.03234,0.0114 7.72599,-0.75087 9.56521,-2.70691 1.15151,-1.22465 1.31541,-1.96552 1.47909,-6.6859 0.22526,-6.496307 -0.5025,-10.22608 -2.94985,-15.118056 C 159.80693,75.752865 141.16574,68.25707 122.61736,70.41316 104.3555,72.535943 93.738977,81.356254 90.488835,97.105854 c -0.934377,4.527816 -1.028577,7.593016 -1.035029,33.678936 -0.0057,23.23463 0.14872,29.59129 0.811408,33.39143 2.32726,13.34549 9.320733,21.34485 22.529806,25.77029 7.59405,2.54425 17.71134,2.99402 27.16546,1.20767 z"
   id="path3724"
   inkscape:connector-curvature="0" /><path
   style="fill:#6c5353;stroke-width:0.54025424"
   d="m 56.799917,91.243348 c -1.011096,-1.011096 -1.097959,-2.467719 -0.200666,-3.365012 0.400361,-0.40036 2.367687,-0.648305 5.143998,-0.648305 4.26918,0 4.526648,0.06794 5.110083,1.348441 0.507656,1.114183 0.44417,1.536533 -0.365442,2.431144 -0.809413,0.894391 -1.663296,1.082703 -4.909417,1.082703 -2.852011,0 -4.16239,-0.232806 -4.778556,-0.848971 z"
   id="path3726"
   inkscape:connector-curvature="0" /><path
   style="fill:#6c5353;stroke-width:0.54025424"
   d="m 68.196709,120.90588 c -0.78865,-0.78865 -0.335665,-3.39671 0.684822,-3.94286 1.356368,-0.7259 10.060005,-0.7259 11.416373,0 1.168094,0.62515 1.389198,2.66221 0.396686,3.65472 -0.692989,0.69299 -11.836125,0.94989 -12.497881,0.28814 z"
   id="path3728"
   inkscape:connector-curvature="0" /><path
   style="fill:#6c5353;stroke-width:0.54025424"
   d="m 21.642816,106.13673 c -0.809612,-0.89461 -0.873098,-1.31696 -0.365442,-2.43114 0.560767,-1.23075 0.912468,-1.34844 4.029575,-1.34844 3.510589,0 4.711794,0.56863 4.711794,2.23048 0,1.73753 -1.545065,2.63181 -4.547018,2.63181 -2.164883,0 -3.084379,-0.26001 -3.828909,-1.08271 z"
   id="path3730"
   inkscape:connector-curvature="0" /><path
   style="fill:#6c5353;stroke-width:0.54025424"
   d="m 9.8748558,134.97809 c -0.6624363,-0.66243 -0.4222323,-2.7444 0.3948712,-3.42253 0.429354,-0.35633 1.341033,-0.56844 2.025953,-0.47134 1.029415,0.14593 1.245309,0.50435 1.245309,2.06742 0,1.71051 -0.156462,1.90622 -1.64018,2.05156 -0.902099,0.0884 -1.813778,-0.0129 -2.0259532,-0.22511 z"
   id="path3732"
   inkscape:connector-curvature="0" /></svg>