<?xml version="1.0" encoding="UTF-8" standalone="no"?>
<!-- Generator: Adobe Illustrator 18.0.0, SVG Export Plug-In . SVG Version: 6.00 Build 0)  -->

<svg
   xmlns:dc="http://purl.org/dc/elements/1.1/"
   xmlns:cc="http://creativecommons.org/ns#"
   xmlns:rdf="http://www.w3.org/1999/02/22-rdf-syntax-ns#"
   xmlns:svg="http://www.w3.org/2000/svg"
   xmlns="http://www.w3.org/2000/svg"
   xmlns:sodipodi="http://sodipodi.sourceforge.net/DTD/sodipodi-0.dtd"
   xmlns:inkscape="http://www.inkscape.org/namespaces/inkscape"
   version="1.1"
   id="abc"
   x="0px"
   y="0px"
   width="255px"
   height="255px"
   viewBox="0 0 255 255"
   enable-background="new 0 0 255 255"
   xml:space="preserve"
   sodipodi:docname="M.svg"
   inkscape:version="0.92.3 (2405546, 2018-03-11)"><metadata
   id="metadata21"><rdf:RDF><cc:Work
       rdf:about=""><dc:format>image/svg+xml</dc:format><dc:type
         rdf:resource="http://purl.org/dc/dcmitype/StillImage" /><dc:title></dc:title></cc:Work></rdf:RDF></metadata><defs
   id="defs19" /><sodipodi:namedview
   pagecolor="#ffffff"
   bordercolor="#666666"
   borderopacity="1"
   objecttolerance="10"
   gridtolerance="10"
   guidetolerance="10"
   inkscape:pageopacity="0"
   inkscape:pageshadow="2"
   inkscape:window-width="1600"
   inkscape:window-height="837"
   id="namedview17"
   showgrid="false"
   inkscape:zoom="1.8509804"
   inkscape:cx="137.15005"
   inkscape:cy="155.94762"
   inkscape:window-x="-8"
   inkscape:window-y="-8"
   inkscape:window-maximized="1"
   inkscape:current-layer="abc" />
<path
   fill="#00457C"
   d="M166,196.1c-4.1,0-7.7-0.8-10.7-2.5c-4.3-2.4-5.3-5.8-5.3-8.3V130l-11.9,20.3c-2.4,4.1-6.2,6.2-11.1,6.2  c-4.8,0-8.5-2.2-10.6-6.3l-11.6-21.3v56.4c0,2.5-0.9,5.9-5.3,8.3c-3,1.6-6.6,2.5-10.7,2.5c-4.1,0-7.7-0.8-10.7-2.5  c-4.3-2.4-5.3-5.8-5.3-8.3V81.2c0-5.3,1.6-9.4,4.8-12.1c3-2.6,6.8-3.9,11.2-3.9c5.7,0,9.9,0.9,13,2.7c3.1,1.8,6.4,5.7,10,12  l15.5,27.2L143,80c3.6-6.3,6.8-10.2,10-12c3.1-1.8,7.4-2.7,13-2.7c4.4,0,8.1,1.3,11.2,3.9c3.2,2.7,4.8,6.7,4.8,12.1v104.1  c0,2.5-0.9,5.9-5.3,8.3C173.7,195.2,170.1,196.1,166,196.1z M152.6,118.3c0.2,0,0.4,0,0.7,0.1c1.1,0.3,1.8,1.3,1.8,2.4v64.5  c0,1.2,0.3,2.6,2.6,3.9c2.3,1.2,5,1.8,8.3,1.8c3.2,0,6-0.6,8.3-1.8c2.3-1.3,2.7-2.8,2.7-3.9V81.2c0-3.8-1-6.5-3-8.2  c-2.1-1.8-4.7-2.7-7.9-2.7c-4.7,0-8.2,0.7-10.5,2c-1.6,0.9-4.3,3.4-8.1,10.2l-17.7,31c-0.4,0.8-1.3,1.3-2.2,1.3l0,0  c-0.9,0-1.7-0.5-2.2-1.3l-17.7-31c-3.8-6.8-6.5-9.3-8.1-10.2c-2.3-1.3-5.8-2-10.5-2c-3.2,0-5.8,0.9-7.9,2.7c-2,1.7-3,4.4-3,8.2  v104.1c0,1.2,0.3,2.6,2.6,3.9c2.3,1.2,5,1.8,8.3,1.8c3.2,0,6-0.6,8.3-1.8c2.3-1.3,2.6-2.8,2.6-3.9v-66.2c0-1.1,0.8-2.1,1.9-2.4  c1.1-0.3,2.3,0.2,2.8,1.2l16.3,29.9c1.3,2.5,3.3,3.7,6.2,3.7c3.1,0,5.3-1.2,6.8-3.8l16.5-28.2C150.9,118.8,151.7,118.3,152.6,118.3z  "
   id="path2" />
<path
   fill="#00457C"
   d="M108.5,210.7h-35c-1.5,0-2.7,1.2-2.7,2.7c0,1.5,1.2,2.7,2.7,2.7h35c1.5,0,2.7-1.2,2.7-2.7  C111.2,211.9,110,210.7,108.5,210.7z"
   id="path4" />
<path
   fill="#00457C"
   d="M170.9,216.1c1.5,0,2.7-1.2,2.7-2.7c0-1.5-1.2-2.7-2.7-2.7h-18.5c-1.5,0-2.7,1.2-2.7,2.7  c0,1.5,1.2,2.7,2.7,2.7H170.9z"
   id="path6" />
<path
   fill="#00457C"
   d="M135.9,210.7h-6.9c-1.5,0-2.7,1.2-2.7,2.7c0,1.5,1.2,2.7,2.7,2.7h6.9c1.5,0,2.7-1.2,2.7-2.7  C138.7,211.9,137.5,210.7,135.9,210.7z"
   id="path8" />
<path
   fill="#00457C"
   d="M131.8,229.2c0,1.5,1.2,2.7,2.7,2.7h21.3c1.5,0,2.7-1.2,2.7-2.7c0-1.5-1.2-2.7-2.7-2.7h-21.3  C133,226.4,131.8,227.7,131.8,229.2z"
   id="path10" />
<path
   fill="#00457C"
   d="M113.4,226.4h-2.3c-1.5,0-2.7,1.2-2.7,2.7c0,1.5,1.2,2.7,2.7,2.7h2.3c1.5,0,2.7-1.2,2.7-2.7  C116.2,227.7,114.9,226.4,113.4,226.4z"
   id="path12" />
<path
   fill="#00457C"
   d="M57,87.5c0-1.5-1.2-2.7-2.7-2.7h-1.7v-1.7c0-1.5-1.2-2.7-2.7-2.7s-2.7,1.2-2.7,2.7v1.7h-1.7  c-1.5,0-2.7,1.2-2.7,2.7c0,1.5,1.2,2.7,2.7,2.7h1.7V92c0,1.5,1.2,2.7,2.7,2.7s2.7-1.2,2.7-2.7v-1.7h1.7C55.8,90.3,57,89.1,57,87.5z"
   id="path14" />
<path
   style="fill:#6c5353;stroke-width:0.54025424"
   d="m 85.171297,195.53843 c -3.664264,-0.46291 -8.60955,-2.75253 -10.135721,-4.69274 -0.600386,-0.76326 -1.342285,-2.31869 -1.648665,-3.4565 -0.370401,-1.37557 -0.502005,-20.22374 -0.392761,-56.25098 0.136689,-45.078425 0.292727,-54.529577 0.928677,-56.249505 1.142362,-3.089522 4.45319,-6.530354 7.576443,-7.873941 5.405396,-2.325339 13.628153,-1.984804 19.32035,0.800128 4.34104,2.123874 7.37212,6.266573 17.3323,23.688731 4.85373,8.490058 8.98792,15.436467 9.18709,15.436467 0.19917,0 4.25071,-6.73021 9.00343,-14.956026 4.75271,-8.225815 9.67105,-16.3661 10.92964,-18.089523 4.28242,-5.864049 8.89632,-8.046 17.33588,-8.19828 7.98868,-0.144145 13.21376,2.630045 15.82085,8.399883 l 1.29221,2.859837 0.15471,54.164879 c 0.11109,38.89665 -0.0168,54.80167 -0.4536,56.42393 -1.36999,5.08774 -7.13495,8.1237 -15.36848,8.0934 -5.23462,-0.0193 -8.31664,-0.82986 -11.73546,-3.08651 -4.05561,-2.67697 -3.89998,-1.42714 -4.20204,-33.74718 l -0.27013,-28.9036 -3.98336,6.75317 c -8.51127,14.42955 -9.47647,15.85582 -11.86561,17.53376 -2.15611,1.51427 -2.70083,1.64527 -6.84171,1.64527 -7.07629,0 -7.6501,-0.55523 -15.63988,-15.13349 l -6.51054,-11.87922 -0.27013,29.44385 c -0.24669,26.88927 -0.35346,29.5964 -1.23063,31.20199 -2.43491,4.45688 -10.354729,7.08008 -18.332863,6.0722 z m 11.639762,-5.89585 c 1.29526,-0.62702 2.635523,-1.75568 2.97836,-2.50813 0.449851,-0.98731 0.623341,-10.82873 0.623341,-35.35967 0,-33.51323 0.0153,-33.99978 1.08767,-34.57369 0.64057,-0.34282 1.42733,-0.39201 1.91398,-0.11967 0.45447,0.25434 4.78461,7.72122 9.62254,16.59308 9.51833,17.45487 10.0596,18.13556 14.38009,18.08405 4.28143,-0.0511 4.96295,-0.858 14.64431,-17.33942 6.94148,-11.81707 9.27048,-15.36371 10.17844,-15.49985 2.82186,-0.42312 2.73865,-1.47857 2.73865,34.73522 0,31.33928 0.064,33.67215 0.94544,34.44497 4.52705,3.96931 16.00114,4.0512 19.91025,0.1421 l 1.29473,-1.29474 -0.003,-54.18504 c -0.002,-35.120585 -0.19665,-54.88222 -0.55338,-56.166555 -0.65003,-2.34036 -3.40381,-4.930414 -6.23581,-5.865056 -2.92149,-0.964178 -10.71223,-0.419963 -13.84854,0.967375 -3.66038,1.61926 -5.90162,4.841597 -17.17683,24.696267 -9.84879,17.342889 -11.05424,19.021299 -12.85978,17.905409 -0.27243,-0.16837 -4.9662,-8.14796 -10.4306,-17.732411 -5.46439,-9.584452 -10.97525,-18.81107 -12.24637,-20.503596 -3.08101,-4.102451 -5.739822,-5.375798 -11.966232,-5.730812 -7.144184,-0.407342 -10.892918,1.187299 -12.816066,5.451718 -0.951618,2.110132 -0.999804,4.8405 -0.999804,56.652931 v 54.43596 l 1.433068,1.43314 c 0.788187,0.78822 2.611545,1.76552 4.051907,2.17176 3.677631,1.03726 10.325997,0.62075 13.333876,-0.83534 z"
   id="path23"
   inkscape:connector-curvature="0" /><path
   style="fill:#6c5353;stroke-width:0.54025424"
   d="m 72.106323,215.36949 c -0.638672,-0.46701 -0.899267,-1.23553 -0.778576,-2.29608 l 0.181411,-1.59412 h 19.449152 19.44915 l 0.18141,1.59412 c 0.33505,2.94418 -0.0176,2.99804 -19.63056,2.99804 -13.823038,0 -18.110318,-0.15964 -18.851987,-0.70196 z"
   id="path25"
   inkscape:connector-curvature="0" /><path
   style="fill:#6c5353;stroke-width:0.54025424"
   d="m 48.316815,93.665273 c -0.466934,-0.466934 -0.848971,-1.412335 -0.848971,-2.100892 0,-1.002478 -0.375888,-1.322437 -1.886536,-1.605836 -2.50041,-0.46908 -3.228566,-2.679875 -1.376583,-4.179519 0.671993,-0.544147 1.681101,-0.989358 2.242462,-0.989358 0.710543,0 1.020657,-0.384934 1.020657,-1.266903 0,-1.262479 1.481597,-3.055131 2.525015,-3.055131 0.922228,0 2.337273,1.906486 2.337273,3.149002 0,0.763916 0.334922,1.173032 0.960299,1.173032 1.435408,0 3.361735,1.543312 3.361735,2.693316 0,1.406949 -1.446848,2.709226 -3.009988,2.709226 -1.029055,0 -1.312046,0.282991 -1.312046,1.312046 0,1.434689 -1.272357,3.009988 -2.431144,3.009988 -0.403261,0 -1.115239,-0.382037 -1.582173,-0.848971 z"
   id="path27"
   inkscape:connector-curvature="0" /><path
   style="fill:#6c5353;stroke-width:0.54025424"
   d="m 127.42547,214.99094 c -1.26535,-1.26535 -1.31574,-1.6328 -0.39639,-2.89009 0.58103,-0.7946 1.45619,-0.91192 5.80773,-0.77857 5.08186,0.15573 5.12496,0.16856 5.28801,1.57479 0.2785,2.40186 -1.08566,3.17438 -5.60552,3.17438 -3.29298,0 -4.20726,-0.19394 -5.09383,-1.08051 z"
   id="path29"
   inkscape:connector-curvature="0" /><path
   style="fill:#6c5353;stroke-width:0.54025424"
   d="m 109.5413,230.72178 c -1.10853,-0.89764 -1.18035,-1.18308 -0.61169,-2.43115 0.56958,-1.25008 0.95675,-1.4141 3.33815,-1.4141 2.14092,0 2.81254,0.22178 3.27212,1.08051 1.57891,2.95022 -3.10405,5.10859 -5.99858,2.76474 z"
   id="path31"
   inkscape:connector-curvature="0" /><path
   style="fill:#6c5353;stroke-width:0.54025424"
   d="m 132.93606,231.09052 c -0.83334,-0.83335 -0.83334,-2.73234 0,-3.56568 0.91844,-0.91844 23.71716,-0.91844 24.6356,0 0.89729,0.89729 0.81043,2.35391 -0.20067,3.36501 -0.71847,0.71847 -2.61193,0.84897 -12.3178,0.84897 -8.19985,0 -11.65361,-0.18479 -12.11713,-0.6483 z"
   id="path33"
   inkscape:connector-curvature="0" /><path
   style="fill:#6c5353;stroke-width:0.54025424"
   d="m 150.98344,215.36949 c -0.63867,-0.46701 -0.89927,-1.23553 -0.77857,-2.29608 l 0.18141,-1.59412 10.7357,-0.14671 c 11.12529,-0.15202 12.2251,0.0345 12.2251,2.07311 0,2.25562 -1.83125,2.66576 -11.90254,2.66576 -6.94048,0 -9.75984,-0.18919 -10.4611,-0.70196 z"
   id="path35"
   inkscape:connector-curvature="0" /></svg>