<?xml version="1.0" encoding="UTF-8" standalone="no"?>
<!-- Generator: Adobe Illustrator 18.0.0, SVG Export Plug-In . SVG Version: 6.00 Build 0)  -->

<svg
   xmlns:dc="http://purl.org/dc/elements/1.1/"
   xmlns:cc="http://creativecommons.org/ns#"
   xmlns:rdf="http://www.w3.org/1999/02/22-rdf-syntax-ns#"
   xmlns:svg="http://www.w3.org/2000/svg"
   xmlns="http://www.w3.org/2000/svg"
   xmlns:sodipodi="http://sodipodi.sourceforge.net/DTD/sodipodi-0.dtd"
   xmlns:inkscape="http://www.inkscape.org/namespaces/inkscape"
   version="1.1"
   id="abc"
   x="0px"
   y="0px"
   width="255px"
   height="255px"
   viewBox="0 0 255 255"
   enable-background="new 0 0 255 255"
   xml:space="preserve"
   sodipodi:docname="P.svg"
   inkscape:version="0.92.3 (2405546, 2018-03-11)"><metadata
   id="metadata27"><rdf:RDF><cc:Work
       rdf:about=""><dc:format>image/svg+xml</dc:format><dc:type
         rdf:resource="http://purl.org/dc/dcmitype/StillImage" /><dc:title></dc:title></cc:Work></rdf:RDF></metadata><defs
   id="defs25" /><sodipodi:namedview
   pagecolor="#ffffff"
   bordercolor="#666666"
   borderopacity="1"
   objecttolerance="10"
   gridtolerance="10"
   guidetolerance="10"
   inkscape:pageopacity="0"
   inkscape:pageshadow="2"
   inkscape:window-width="1600"
   inkscape:window-height="837"
   id="namedview23"
   showgrid="false"
   inkscape:zoom="2.6176816"
   inkscape:cx="120.0823"
   inkscape:cy="158.37561"
   inkscape:window-x="-8"
   inkscape:window-y="-8"
   inkscape:window-maximized="1"
   inkscape:current-layer="abc" />
<path
   fill="#00457C"
   d="M101.3,196.1c-4.1,0-7.7-0.8-10.7-2.5c-4.3-2.4-5.3-5.8-5.3-8.3V75.9c0-2.9,1.2-5.5,3.6-7.6  c2.3-2,5.3-3,8.9-3h35.6c12.8,0,23.3,3.4,31.1,10.2c7.9,6.8,12,17.6,12,31.9v0.9c0,14.4-4.2,25.2-12.5,32.1  c-8.2,6.8-19,10.3-32.3,10.3h-14.5v34.7c0,2.5-0.9,5.9-5.3,8.3C108.9,195.2,105.3,196.1,101.3,196.1z M97.8,70.3  c-2.4,0-4.2,0.6-5.6,1.8c-1.3,1.1-1.9,2.3-1.9,3.8v109.4c0,1.2,0.3,2.6,2.6,3.9c2.3,1.2,5,1.8,8.3,1.8c3.2,0,6-0.6,8.3-1.8  c2.3-1.3,2.6-2.8,2.6-3.9v-37.2c0-1.4,1.1-2.5,2.5-2.5h17c12.1,0,21.9-3.1,29.1-9.1c7.1-5.9,10.7-15.5,10.7-28.3v-0.9  c0-12.8-3.4-22.3-10.2-28.1c-6.9-5.9-16.3-8.9-27.9-8.9H97.8z M131.7,130h-17c-1.4,0-2.5-1.1-2.5-2.5V91.2c0-1.4,1.1-2.5,2.5-2.5h17  c8.2,0,18,3.4,18,19.7v1.9C149.7,126.6,139.9,130,131.7,130z M117.2,125h14.5c8.9,0,13-4.7,13-14.7v-1.9c0-10-4.1-14.7-13-14.7  h-14.5V125z"
   id="path2" />
<path
   fill="#00457C"
   d="M172.2,172.3c0,1.5,1.2,2.7,2.7,2.7h35c1.5,0,2.7-1.2,2.7-2.7s-1.2-2.7-2.7-2.7h-35  C173.5,169.5,172.2,170.8,172.2,172.3z"
   id="path4" />
<path
   fill="#00457C"
   d="M131.1,175c1.5,0,2.7-1.2,2.7-2.7s-1.2-2.7-2.7-2.7h-16.4v5.5H131.1z"
   id="path6" />
<path
   fill="#00457C"
   d="M154.4,175c1.5,0,2.7-1.2,2.7-2.7s-1.2-2.7-2.7-2.7h-6.9c-1.5,0-2.7,1.2-2.7,2.7s1.2,2.7,2.7,2.7H154.4z"
   id="path8" />
<path
   fill="#00457C"
   d="M124.9,188.1c0,1.5,1.2,2.7,2.7,2.7h21.3c1.5,0,2.7-1.2,2.7-2.7c0-1.5-1.2-2.7-2.7-2.7h-21.3  C126.2,185.3,124.9,186.5,124.9,188.1z"
   id="path10" />
<path
   fill="#00457C"
   d="M172.4,185.3h-2.3c-1.5,0-2.7,1.2-2.7,2.7c0,1.5,1.2,2.7,2.7,2.7h2.3c1.5,0,2.7-1.2,2.7-2.7  C175.1,186.5,173.9,185.3,172.4,185.3z"
   id="path12" />
<path
   fill="#00457C"
   d="M187.9,133h1.8v1.8c0,1.5,1.2,2.6,2.6,2.6h0.2c1.5,0,2.6-1.2,2.6-2.6V133h1.8c1.5,0,2.6-1.2,2.6-2.6v-0.2  c0-1.5-1.2-2.6-2.6-2.6h-1.8v-1.8c0-1.5-1.2-2.6-2.6-2.6h-0.2c-1.5,0-2.6,1.2-2.6,2.6v1.8h-1.8c-1.5,0-2.6,1.2-2.6,2.6v0.2  C185.3,131.8,186.4,133,187.9,133z"
   id="path14" />
<path
   fill="#00457C"
   d="M45,136.1c0-1.5-1.2-2.7-2.7-2.7H28.5c-1.5,0-2.7,1.2-2.7,2.7s1.2,2.7,2.7,2.7h13.7  C43.7,138.8,45,137.6,45,136.1z"
   id="path16" />
<path
   fill="#00457C"
   d="M59.4,138.8h28.5v-5.5H59.4c-1.5,0-2.7,1.2-2.7,2.7S57.9,138.8,59.4,138.8z"
   id="path18" />
<path
   fill="#00457C"
   d="M87.5,118.9h-8.9c-1.5,0-2.7,1.2-2.7,2.7v0c0,1.5,1.2,2.7,2.7,2.7h8.9c0.1,0,0.2,0,0.4,0V119  C87.7,118.9,87.6,118.9,87.5,118.9z"
   id="path20" />
<path
   style="fill:#6c5353;stroke-width:0.38201743"
   d="m 95.384065,195.2757 c -3.090257,-0.78408 -6.103741,-2.44004 -7.581005,-4.16589 -2.496859,-2.91702 -2.484345,-2.77094 -2.484345,-29.00056 V 138.4935 H 71.816304 c -12.595757,0 -13.544864,-0.0469 -14.134645,-0.69861 -0.839164,-0.92726 -0.804102,-2.84761 0.06638,-3.63538 0.62219,-0.56307 2.168368,-0.63223 14.134645,-0.63223 h 13.436034 v -4.77522 -4.77522 H 81.36674 c -4.36597,0 -5.216443,-0.39417 -5.216443,-2.41769 0,-2.02402 1.097777,-2.54854 5.333923,-2.54854 h 3.805853 l 0.109825,-22.634529 c 0.122944,-25.338224 -0.03224,-23.912069 2.954592,-27.152402 0.861283,-0.934382 2.46454,-2.105141 3.562793,-2.601687 l 1.996824,-0.90281 21.583983,-0.116215 c 13.97324,-0.07524 22.8839,0.03191 25.27051,0.303859 14.78736,1.684996 26.26459,9.119669 31.46961,20.385255 3.02377,6.54456 4.22015,13.967079 3.88607,24.109859 -0.40813,12.3908 -3.21759,20.37339 -9.57119,27.19487 -4.07589,4.37604 -9.78465,7.90554 -16.33784,10.10107 -6.33665,2.12297 -8.00564,2.32903 -20.96453,2.58836 l -12.03355,0.24081 -0.10206,9.64594 -0.10207,9.64594 h 7.5877 c 6.86569,0 7.64787,0.0665 8.21994,0.69861 0.83916,0.92727 0.8041,2.84761 -0.0664,3.63538 -0.60022,0.5432 -1.7569,0.63224 -8.21337,0.63224 h -7.51477 v 6.22828 c 0,5.96136 -0.0431,6.31477 -1.00567,8.24641 -1.22383,2.45591 -3.53177,4.23982 -7.01669,5.42353 -3.08472,1.04778 -10.545798,1.37225 -13.619735,0.59232 z m 11.978045,-5.00841 c 2.53375,-0.76784 4.18799,-2.16293 4.68452,-3.95066 0.24233,-0.8725 0.39187,-8.58862 0.39319,-20.28779 0.002,-17.02987 0.0641,-18.94824 0.63437,-19.5784 0.58437,-0.64572 1.45918,-0.69869 11.55603,-0.69968 6.00808,-7.7e-4 12.47096,-0.18993 14.36194,-0.42075 14.61271,-1.78365 25.14826,-8.73131 29.47171,-19.43508 3.08988,-7.64976 3.95949,-18.90436 2.22793,-28.83389 -2.67579,-15.344081 -13.17906,-24.418956 -30.73457,-26.554819 -1.84816,-0.224852 -11.94065,-0.393839 -23.52153,-0.393839 -22.626079,0 -22.787605,0.01634 -24.993228,2.528406 l -1.15753,1.318354 v 56.473768 c 0,55.63579 0.01118,56.48799 0.753645,57.43187 2.318554,2.94757 10.534603,4.15681 16.323523,2.40251 z"
   id="path29"
   inkscape:connector-curvature="0" /><path
   style="fill:#6c5353;stroke-width:0.38201743"
   d="m 26.738247,137.79489 c -0.85758,-0.94761 -0.796344,-2.57543 0.131801,-3.50358 0.713915,-0.71391 1.273391,-0.76403 8.528801,-0.76403 7.622482,0 7.779987,0.0162 8.595392,0.88416 1.036131,1.10291 1.060637,2.32398 0.06659,3.31803 -0.715164,0.71516 -1.273391,0.76403 -8.727193,0.76403 -7.229419,0 -8.021413,-0.0644 -8.595392,-0.69861 z"
   id="path31"
   inkscape:connector-curvature="0" /><path
   style="fill:#6c5353;stroke-width:0.38201743"
   d="m 191.51956,137.08234 c -0.99234,-0.35466 -1.52807,-1.35876 -1.52807,-2.86404 0,-1.44289 -0.0128,-1.45506 -1.52807,-1.45506 -1.78883,0 -3.05614,-1.02969 -3.05614,-2.48311 0,-1.45343 1.26731,-2.48312 3.05614,-2.48312 1.51005,0 1.52814,-0.0169 1.53392,-1.43256 0.007,-1.64746 0.24152,-2.10182 1.40171,-2.71249 1.73355,-0.91248 3.55867,0.61272 3.55867,2.97389 0,1.10381 0.0845,1.17116 1.46886,1.17116 1.76235,0 2.73333,0.90568 2.73333,2.54949 0,1.50571 -1.0554,2.41674 -2.79971,2.41674 -1.37723,0 -1.40248,0.027 -1.40248,1.50034 0,1.16584 -0.22442,1.67687 -1.00656,2.29211 -1.0248,0.80611 -1.41387,0.89037 -2.4316,0.52665 z"
   id="path33"
   inkscape:connector-curvature="0" /><path
   style="fill:#6c5353;stroke-width:0.38201743"
   d="m 113.07419,129.00849 c -0.5706,-0.6305 -0.63224,-2.56505 -0.63224,-19.84324 V 90.020612 l 0.84904,-0.594688 c 1.17378,-0.822149 19.43451,-0.857062 23.26813,-0.04449 8.83913,1.873545 12.95042,8.297996 12.93189,20.207856 -0.0174,11.17048 -3.85808,17.40102 -12.04027,19.53221 -1.76211,0.45897 -4.57239,0.5856 -12.99629,0.5856 -9.92736,0 -10.7963,-0.0533 -11.38026,-0.69861 z m 23.4503,-4.4986 c 5.85858,-1.73981 8.39239,-6.40575 8.3801,-15.43173 -0.008,-6.13508 -1.39426,-10.313047 -4.22471,-12.735803 -2.80606,-2.401882 -4.02308,-2.641537 -14.38979,-2.833625 l -9.26393,-0.171654 v 15.892912 15.8929 h 8.71707 c 6.88888,0 9.14998,-0.12856 10.78126,-0.613 z"
   id="path35"
   inkscape:connector-curvature="0" /><path
   style="fill:#6c5353;stroke-width:0.38201743"
   d="m 125.64322,189.59884 c -0.87375,-1.24744 -0.72737,-2.42931 0.41187,-3.32543 0.96617,-0.75999 1.45466,-0.79176 12.17304,-0.79176 10.71838,0 11.20687,0.0318 12.17304,0.79176 1.13924,0.89612 1.28562,2.07799 0.41187,3.32543 -0.59305,0.8467 -0.62761,0.84903 -12.58491,0.84903 -11.9573,0 -11.99186,-0.002 -12.58491,-0.84903 z"
   id="path37"
   inkscape:connector-curvature="0" /><path
   style="fill:#6c5353;stroke-width:0.38201743"
   d="m 145.74406,173.901 c -1.03928,-1.10626 -1.05619,-2.16782 -0.0517,-3.246 0.71633,-0.76888 1.14134,-0.83607 5.28904,-0.83607 5.03489,0 5.77459,0.32658 5.77459,2.54949 0,2.0572 -0.86127,2.41674 -5.78926,2.41674 -4.097,0 -4.44783,-0.0594 -5.22266,-0.88416 z"
   id="path39"
   inkscape:connector-curvature="0" /><path
   style="fill:#6c5353;stroke-width:0.38201743"
   d="m 168.24423,189.44131 c -0.99056,-1.25928 -0.99056,-1.69382 0,-2.9531 0.69198,-0.87971 1.06966,-1.00656 2.99693,-1.00656 2.48096,0 3.56514,0.75512 3.56514,2.48311 0,1.72799 -1.08418,2.48311 -3.56514,2.48311 -1.92727,0 -2.30495,-0.12684 -2.99693,-1.00656 z"
   id="path41"
   inkscape:connector-curvature="0" /><path
   style="fill:#6c5353;stroke-width:0.38201743"
   d="m 173.18273,174.02112 c -0.97682,-0.97681 -0.97682,-2.46134 0,-3.43815 0.74299,-0.743 1.27339,-0.76404 19.26415,-0.76404 H 210.947 l 0.79176,1.00656 c 0.99055,1.25929 0.99055,1.69382 0,2.95311 l -0.79176,1.00656 h -18.50012 c -17.99076,0 -18.52116,-0.021 -19.26415,-0.76404 z"
   id="path43"
   inkscape:connector-curvature="0" /></svg>