<?xml version="1.0" encoding="UTF-8" standalone="no"?>
<!-- Generator: Adobe Illustrator 18.0.0, SVG Export Plug-In . SVG Version: 6.00 Build 0)  -->

<svg
   xmlns:dc="http://purl.org/dc/elements/1.1/"
   xmlns:cc="http://creativecommons.org/ns#"
   xmlns:rdf="http://www.w3.org/1999/02/22-rdf-syntax-ns#"
   xmlns:svg="http://www.w3.org/2000/svg"
   xmlns="http://www.w3.org/2000/svg"
   xmlns:sodipodi="http://sodipodi.sourceforge.net/DTD/sodipodi-0.dtd"
   xmlns:inkscape="http://www.inkscape.org/namespaces/inkscape"
   version="1.1"
   id="abc"
   x="0px"
   y="0px"
   width="255px"
   height="255px"
   viewBox="0 0 255 255"
   enable-background="new 0 0 255 255"
   xml:space="preserve"
   sodipodi:docname="S.svg"
   inkscape:version="0.92.3 (2405546, 2018-03-11)"><metadata
   id="metadata25"><rdf:RDF><cc:Work
       rdf:about=""><dc:format>image/svg+xml</dc:format><dc:type
         rdf:resource="http://purl.org/dc/dcmitype/StillImage" /><dc:title></dc:title></cc:Work></rdf:RDF></metadata><defs
   id="defs23" /><sodipodi:namedview
   pagecolor="#ffffff"
   bordercolor="#666666"
   borderopacity="1"
   objecttolerance="10"
   gridtolerance="10"
   guidetolerance="10"
   inkscape:pageopacity="0"
   inkscape:pageshadow="2"
   inkscape:window-width="1600"
   inkscape:window-height="837"
   id="namedview21"
   showgrid="false"
   inkscape:zoom="2.6176816"
   inkscape:cx="134.32361"
   inkscape:cy="151.25495"
   inkscape:window-x="-8"
   inkscape:window-y="-8"
   inkscape:window-maximized="1"
   inkscape:current-layer="abc" />
<path
   fill="#00457C"
   d="M126.4,197.8c-11.5,0-21.7-2.4-30.3-7.2c-9.1-5-13.7-11-13.7-17.7c0-3.7,1.3-7.5,4-11.1  c2.8-3.9,6.3-5.8,10.2-5.8c2.2,0,4.6,0.8,7.1,2.5c2.2,1.5,4.3,3.1,6.2,4.9c1.6,1.5,3.8,2.9,6.8,4.1c2.9,1.2,6,1.9,9.2,1.9  c4,0,7.5-0.8,10.5-2.5c2.5-1.4,3.7-3.5,3.7-6.3c0-3-1.5-5.6-4.6-8c-3.6-2.7-8-5.3-13.1-7.5c-5.4-2.4-10.8-5.1-16.3-8  c-5.7-3.1-10.6-7.6-14.5-13.2c-4-5.8-6-12.7-6-20.7c0-13,4.7-22.8,14-29.3c9-6.3,19.9-9.5,32.6-9.5c3.1,0,6.3,0.2,9.6,0.5  c3.4,0.4,7.2,1.1,11.3,2.1c4.4,1.1,8.1,2.9,11,5.4c3.1,2.7,4.7,6.1,4.7,10c0,3.5-1.1,7.1-3.2,10.7c-2.3,4-5.8,6.1-10,6.1  c-1.2,0-3.5-0.4-9.9-3.5c-4.1-2-8.7-3-13.7-3c-5.2,0-9,0.9-11.5,2.6c-2.9,2-3.2,4-3.2,5.3c0,1.9,1,3.6,3.1,5.3  c2.5,2,5.6,3.8,9.4,5.2c4.1,1.6,8.6,3.6,13.4,6.1c4.9,2.5,9.4,5.3,13.5,8.3c4.3,3.1,8,7.6,10.8,13.2c2.9,5.6,4.3,12.1,4.3,19.2  c0,12.5-4.3,22.5-12.8,29.5C150.8,194.3,139.8,197.8,126.4,197.8z M96.6,161c-2.3,0-4.3,1.2-6.2,3.8c-2,2.8-3,5.5-3,8.2  c0,4.7,3.7,9.2,11.1,13.3c7.8,4.4,17.2,6.6,27.9,6.6c12.2,0,22.1-3.1,29.5-9.3c7.4-6.1,11-14.5,11-25.7c0-6.3-1.3-12-3.8-16.9  c-2.5-4.9-5.6-8.7-9.3-11.4c-3.9-2.8-8.2-5.5-12.8-7.9c-4.7-2.4-9-4.4-12.9-5.9c-4.2-1.6-7.9-3.6-10.7-6c-3.3-2.7-5-5.7-5-9.2  c0-3.7,1.8-6.9,5.4-9.4c3.3-2.3,8-3.5,14.3-3.5c5.7,0,11.1,1.2,15.9,3.5c5.9,2.9,7.4,3,7.7,3c2.4,0,4.2-1.2,5.7-3.6  c1.7-2.9,2.5-5.6,2.5-8.2c0-2.5-1-4.5-3-6.3c-2.3-2-5.3-3.4-8.9-4.3c-3.9-1-7.5-1.6-10.7-2c-3.2-0.3-6.2-0.5-9.1-0.5  c-11.6,0-21.6,2.9-29.7,8.6c-8,5.6-11.8,13.8-11.8,25.2c0,6.9,1.7,12.9,5.1,17.8c3.5,5,7.8,9,12.8,11.7c5.3,2.9,10.7,5.5,15.9,7.8  c5.5,2.4,10.2,5.2,14.1,8.1c4.4,3.4,6.6,7.4,6.6,12c0,4.7-2.2,8.4-6.3,10.7c-3.7,2.1-8,3.2-12.9,3.2c-3.9,0-7.6-0.8-11.1-2.3  c-3.5-1.5-6.2-3.2-8.2-5.1c-1.7-1.6-3.5-3-5.5-4.3C99.3,161.5,97.8,161,96.6,161z"
   id="path2" />
<path
   fill="#00457C"
   d="M129.6,146.6h1.4c-1.3-0.7-2.6-1.5-4-2.2C127.3,145.7,128.3,146.6,129.6,146.6z"
   id="path4" />
<path
   fill="#00457C"
   d="M173.1,146.6c1.5,0,2.6-1.2,2.6-2.6v-0.2c0-1.5-1.2-2.6-2.6-2.6H166c0.8,1.8,1.4,3.6,2,5.5H173.1z"
   id="path6" />
<path
   fill="#00457C"
   d="M189.4,144c0,1.5,1.2,2.6,2.6,2.6h11.2c1.5,0,2.6-1.2,2.6-2.6v-0.2c0-1.5-1.2-2.6-2.6-2.6h-11.2  c-1.5,0-2.6,1.2-2.6,2.6V144z"
   id="path8" />
<path
   fill="#00457C"
   d="M232.7,156.2H203c-1.5,0-2.6,1.2-2.6,2.6v0.2c0,1.5,1.2,2.6,2.6,2.6h29.7c1.5,0,2.6-1.2,2.6-2.6v-0.2  C235.4,157.4,234.2,156.2,232.7,156.2z"
   id="path10" />
<path
   fill="#00457C"
   d="M173,158.9v0.2c0,1.5,1.2,2.6,2.6,2.6h7.1c1.5,0,2.6-1.2,2.6-2.6v-0.2c0-1.5-1.2-2.6-2.6-2.6h-7.1  C174.1,156.2,173,157.4,173,158.9z"
   id="path12" />
<path
   fill="#00457C"
   d="M177.2,177.5c1.5,0,2.6-1.2,2.6-2.6v-0.2c0-1.5-1.2-2.6-2.6-2.6H167c-0.7,1.9-1.6,3.8-2.7,5.5H177.2z"
   id="path14" />
<line
   fill="none"
   stroke="#00457C"
   stroke-width="0"
   stroke-linecap="round"
   stroke-linejoin="round"
   x1="170.4"
   y1="113.1"
   x2="170.4"
   y2="113.1"
   id="line16" />
<path
   fill="#00457C"
   d="M173,115.9h4.5v4.5c0,1.5,1.2,2.6,2.6,2.6h0.2c1.5,0,2.6-1.2,2.6-2.6v-4.5h4.5c1.5,0,2.6-1.2,2.6-2.6V113  c0-1.5-1.2-2.6-2.6-2.6H183v-4.5c0-1.5-1.2-2.6-2.6-2.6h-0.2c-1.5,0-2.6,1.2-2.6,2.6v4.5H173c-1.5,0-2.6,1.2-2.6,2.6v0.1v0.1  C170.4,114.7,171.6,115.9,173,115.9z"
   id="path18" />
<path
   style="fill:#6c5353;stroke-width:0.38201743"
   d="m 116.66479,196.98324 c -10.37882,-1.41514 -19.887932,-5.25196 -26.845386,-10.8318 -7.903844,-6.33884 -9.338683,-15.52555 -3.682765,-23.57928 3.074321,-4.37767 6.166277,-6.24151 10.367249,-6.24939 3.755722,-0.007 6.962342,1.69071 12.783892,6.76846 5.47385,4.77449 13.08029,7.17774 19.7721,6.247 5.29277,-0.73616 9.02995,-2.6973 10.47868,-5.49884 0.85749,-1.65819 0.76354,-5.16253 -0.18843,-7.02854 -1.92006,-3.76364 -7.12812,-7.26065 -19.4863,-13.08429 -15.12189,-7.126 -18.60689,-9.32337 -24.165507,-15.23693 -7.281975,-7.74695 -10.307913,-16.33794 -9.77858,-27.76252 0.746273,-16.106763 9.473211,-27.037327 26.337457,-32.987883 6.59813,-2.328153 10.89681,-2.926237 20.72935,-2.884114 9.51736,0.04077 13.99073,0.600977 20.93741,2.622017 8.04528,2.340661 13.26592,6.804763 14.4219,12.331991 1.13532,5.428405 -1.9967,13.805827 -6.41268,17.152412 -0.94028,0.71258 -2.51348,1.424852 -3.76635,1.705233 -2.90983,0.651189 -5.09731,0.154517 -11.14401,-2.530271 -5.64031,-2.50435 -8.12886,-3.165328 -13.1529,-3.493518 -11.44993,-0.747956 -19.17229,4.296238 -16.02423,10.466933 1.49034,2.92131 5.70751,5.60577 14.56784,9.27322 11.86091,4.90945 23.26261,11.7846 28.30241,17.06618 2.8195,2.95477 6.40392,8.21051 7.31173,10.72102 l 0.44898,1.24164 h 2.78839 c 3.11173,0 4.31646,0.69303 4.31646,2.48311 0,1.586 -1.25146,2.48311 -3.4639,2.48311 -1.664,0 -1.90818,0.0939 -1.7389,0.66853 1.63194,5.53997 1.56415,15.99056 -0.1437,22.15356 -0.42118,1.51988 -0.76578,2.85154 -0.76578,2.95925 0,0.10772 1.96466,0.19585 4.36591,0.19585 3.37909,0 4.49595,0.13003 4.9412,0.57529 1.02458,1.02457 1.14065,2.12004 0.33857,3.19529 -0.7422,0.99496 -0.80306,1.00565 -6.32097,1.11022 l -5.57155,0.10559 -1.74627,2.62677 c -2.20083,3.31052 -7.35129,8.21073 -11.05891,10.52159 -5.30272,3.30504 -12.69197,5.77644 -19.90258,6.65658 -4.51395,0.55098 -13.1929,0.4715 -17.84983,-0.16347 z m 21.67001,-5.07206 c 11.80872,-2.5912 20.47983,-8.57746 24.99465,-17.2555 4.4969,-8.64362 4.95233,-21.07455 1.13527,-30.98695 -1.4538,-3.77531 -5.0178,-9.14623 -7.87366,-11.86553 -5.18194,-4.93415 -15.52369,-10.78203 -29.33477,-16.58774 -11.71996,-4.92668 -16.583,-11.25038 -13.97106,-18.167433 0.99391,-2.632104 4.0277,-5.662402 7.05772,-7.049592 4.59104,-2.101847 12.73703,-2.670311 19.1878,-1.339014 3.20934,0.662339 5.64413,1.541664 12.36567,4.465868 3.37557,1.468545 5.6234,1.445804 7.50354,-0.07591 2.75475,-2.229613 5.05246,-8.04356 4.56999,-11.563581 -0.79513,-5.801068 -6.54127,-9.235121 -18.94985,-11.324939 -4.95498,-0.834505 -15.35547,-1.161343 -19.90009,-0.625366 -10.98819,1.295908 -20.18888,5.344364 -26.552163,11.683389 -4.753476,4.735354 -6.970169,9.784493 -7.809868,17.789155 -1.155564,11.015733 2.010669,19.963983 9.831241,27.784563 4.08553,4.08553 6.87163,5.67635 26.47606,15.11744 9.21284,4.43671 14.35668,8.43699 16.54211,12.8645 1.08658,2.20134 1.22129,2.83511 1.21797,5.73027 -0.005,3.9187 -0.82216,6.01839 -3.2681,8.39209 -1.81757,1.76389 -5.9559,3.87138 -9.14373,4.65656 -3.00268,0.73957 -10.28339,0.63137 -13.37061,-0.19871 -3.30571,-0.88881 -8.14769,-3.27672 -10.50548,-5.18095 -5.0048,-4.04205 -7.93897,-6.1108 -9.52768,-6.71753 -3.248145,-1.24048 -6.27625,-0.11637 -8.684512,3.22392 -3.013996,4.18044 -3.788939,8.80812 -2.08702,12.46294 2.888044,6.20198 13.810222,12.52188 25.356032,14.67174 5.88488,1.09579 6.04567,1.10693 14.04405,0.97263 5.44741,-0.0915 8.11613,-0.3101 10.69649,-0.87632 z"
   id="path27"
   inkscape:connector-curvature="0" /><path
   style="fill:#6c5353;stroke-width:0.38201743"
   d="m 178.75704,122.39298 c -0.75244,-0.47845 -1.26546,-2.30272 -1.26546,-4.49995 v -2.07623 h -2.43159 c -2.88197,0 -4.44852,-0.91982 -4.43887,-2.60635 0.0116,-2.02337 1.25482,-2.74189 4.74425,-2.74189 h 2.50823 v -2.80593 c 0,-3.19848 0.55416,-4.07039 2.58704,-4.07039 1.74527,0 2.37919,1.1423 2.37919,4.28719 v 2.58913 h 2.67412 c 3.07836,0 4.20219,0.71516 4.20219,2.67412 0,1.94991 -1.12673,2.67412 -4.16044,2.67412 h -2.63236 l -0.14658,2.90274 c -0.11672,2.31125 -0.29579,3.01185 -0.87881,3.43816 -0.79136,0.57865 -2.41018,0.69992 -3.14091,0.23528 z"
   id="path29"
   inkscape:connector-curvature="0" /><path
   style="fill:#6c5353;stroke-width:0.38201743"
   d="m 174.54238,161.2692 c -1.68752,-0.67903 -1.60266,-3.93524 0.11961,-4.59005 0.53309,-0.20268 2.65395,-0.3685 4.71303,-0.3685 3.20904,0 3.88756,0.11309 4.75035,0.79176 1.35251,1.06388 1.35251,2.70084 0,3.76472 -0.8734,0.68701 -1.51778,0.78856 -4.87072,0.76755 -2.12529,-0.0133 -4.24581,-0.17779 -4.71227,-0.36548 z"
   id="path31"
   inkscape:connector-curvature="0" /><path
   style="fill:#6c5353;stroke-width:0.38201743"
   d="m 190.34838,145.67958 c -0.83917,-0.92726 -0.80411,-2.84761 0.0664,-3.63538 0.59273,-0.53641 1.68861,-0.63223 7.23061,-0.63223 h 6.53199 l 0.79176,1.00656 c 0.99056,1.25928 0.99056,1.69382 0,2.9531 l -0.79176,1.00656 h -6.59837 c -5.90723,0 -6.66459,-0.0732 -7.2306,-0.69861 z"
   id="path33"
   inkscape:connector-curvature="0" /><path
   style="fill:none;stroke-width:0.38201743"
   d="m 201.37702,160.75792 c -1.02929,-0.75263 -0.93936,-2.85231 0.16031,-3.74277 0.81369,-0.65888 1.87732,-0.7045 16.42383,-0.7045 h 15.55381 l 0.83062,0.88416 c 0.98061,1.0438 1.05503,2.06361 0.23594,3.23303 l -0.59469,0.84903 h -15.95005 c -12.83622,0 -16.08861,-0.10131 -16.65977,-0.51895 z"
   id="path35"
   inkscape:connector-curvature="0" /><path
   style="fill:none;stroke-width:0.38201743"
   d="m 116.36879,191.99453 c -12.41345,-1.79805 -24.498287,-8.29331 -27.733577,-14.906 -1.91118,-3.90632 -0.786275,-9.21568 2.791621,-13.17598 1.752258,-1.93954 3.092219,-2.63568 5.073302,-2.63568 2.424813,0 4.819064,1.38542 9.997694,5.78508 9.0803,7.71446 21.06832,9.6172 31.12007,4.93939 3.08902,-1.43755 5.23105,-3.43122 6.53129,-6.07893 0.91159,-1.8563 1.06075,-2.6221 1.05365,-5.40957 -0.007,-2.70656 -0.17835,-3.61301 -1.02988,-5.44476 -2.26032,-4.86227 -8.32814,-9.49816 -18.89185,-14.43361 -9.44061,-4.41073 -17.67387,-8.68826 -20.18183,-10.48532 -2.66822,-1.91189 -7.149649,-6.47126 -8.926594,-9.08185 -4.235954,-6.22322 -6.005123,-14.1016 -5.03689,-22.430036 0.514222,-4.423179 1.501479,-7.965084 3.10837,-11.151645 4.02441,-7.980649 14.212594,-14.494046 26.628684,-17.02395 2.62798,-0.535476 5.13387,-0.673708 11.92269,-0.65769 8.90476,0.02101 11.88756,0.356976 18.86901,2.125288 7.42541,1.880766 12.04158,5.904031 12.06602,10.516271 0.0204,3.850369 -2.73467,9.469089 -5.35006,10.910953 -1.86821,1.029945 -3.73748,0.694485 -8.67294,-1.556447 -5.02025,-2.289599 -8.18058,-3.287158 -12.34132,-3.895538 -4.02844,-0.589035 -10.80191,-0.252239 -14.16807,0.704477 -6.81767,1.93769 -10.84057,6.363798 -10.84057,11.927117 0,6.19045 4.9675,11.0351 15.89507,15.50199 9.69626,3.96356 18.8976,8.92879 25.24401,13.62218 10.89848,8.0598 15.74303,23.72612 11.96275,38.68513 -2.58525,10.23014 -11.89525,19.07235 -23.52118,22.33931 -6.80481,1.9122 -17.59483,2.46493 -25.56947,1.30982 z"
   id="path37"
   inkscape:connector-curvature="0" /><path
   style="fill:#6c5353;stroke-width:0.38201743"
   d="m 201.37702,160.75792 c -1.02929,-0.75263 -0.93936,-2.85231 0.16031,-3.74277 0.81369,-0.65888 1.87732,-0.7045 16.42383,-0.7045 h 15.55381 l 0.83062,0.88416 c 0.98061,1.0438 1.05503,2.06361 0.23594,3.23303 l -0.59469,0.84903 h -15.95005 c -12.83622,0 -16.08861,-0.10131 -16.65977,-0.51895 z"
   id="path39"
   inkscape:connector-curvature="0" /></svg>